<svg xmlns="http://www.w3.org/2000/svg" xmlns:xlink="http://www.w3.org/1999/xlink" viewBox="0 0 400 400"><defs><style>.cls-1{fill:#f2f2f2;}.cls-2{fill:url(#未命名的渐变_7);}.cls-3{fill:none;}</style><linearGradient id="未命名的渐变_7" x1="75.35" y1="118.29" x2="355.09" y2="284.16" gradientUnits="userSpaceOnUse"><stop offset="0" stop-color="red"/><stop offset="0.07" stop-color="#f70008"/><stop offset="0.18" stop-color="#e1001e"/><stop offset="0.32" stop-color="#be0041"/><stop offset="0.47" stop-color="#8d0072"/><stop offset="0.52" stop-color="#7b0084"/><stop offset="0.53" stop-color="#780087"/><stop offset="0.56" stop-color="#5800a7"/><stop offset="0.59" stop-color="#3d00c2"/><stop offset="0.63" stop-color="#2600d9"/><stop offset="0.68" stop-color="#1500ea"/><stop offset="0.73" stop-color="#0900f6"/><stop offset="0.81" stop-color="#0200fd"/><stop offset="1" stop-color="blue"/></linearGradient></defs><g id="图层_3" data-name="图层 3"><circle cx="200" cy="200" r="200"/><circle class="cls-1" cx="199.5" cy="200" r="175.5"/></g><g id="钢笔描边"><g id="WLF"><path class="cls-2" d="M192.57,204.62c-2.71,2.2-7.6,6.88-11.09,8.62-2.46,1.23-4.92,3.7-8.62,6.16-4.51,3-4.93,3.7-8.62,7.39-4.78,4.78-12.32,8.62-13.55,8.62s-1-8.48,2.46-18.47c1.34-3.9,0-6.41,1.24-9.86,1.79-5.18,3.69-7.39,4.92-11.08.63-1.88,2.47-18.47,8.62-30.79,1.18-2.35.65-5.13,1.24-8.62.64-3.84,2.4-8.45,3.69-12.32,1.17-3.51,7.39-8.62,7.39-11.08,0-1.23.77-6.32,1.23-9.86s3.08-3.07,3.7-4.92c.49-1.49-.58-3.09,0-6.16.85-4.57,4.68-10.85,6.16-12.32,2.46-2.46,1.23-4.93,2.46-6.16s9.85-6.16,9.85-6.16,3.7-4.92,3.7-7.39-4.93-8.62-11.09-12.31c-4.48-2.69-17.24-3.7-17.24-3.7s-9.85-1.23-17.24,0c-3.88.65-10.8,3-14.78,7.39-3.61,4-4.45,9.91-4.93,12.32,0,0-3.12,6.08,0,12.32,1.23,2.46-2.46,2.46-1.23,6.15,0,0,2.46,3.7,2.46,13.55,0,4.93,1.23,6.16,1.23,9.86s-1.56,19.81-2.46,23.4c-1.23,4.92-3.7,14.49-3.7,17.24,0,2.46-8.62,4.93-9.85,7.39s-16.7,10.2-23.4,13.55c-4.93,2.46-16,17.24-20.94,20.94-4.06,3-13.55,11.08-19.71,7.39-2.27-1.37.82-11.45,2.47-24.64,1.23-9.85,8-24,12.31-28.32,2.47-2.47,7.39-13.55,6.16-18.48s-17.24-27.1-29.56-28.33-13.54,4.93-13.54,6.16.44,6.08,4.92,13.55c3.7,6.16,3.7,13.55,3.7,17.24a23.26,23.26,0,0,1-2.47,9.86A19.07,19.07,0,0,0,46,172.6v14.78c0,2.46-2.46,9.85-2.46,13.55s-1.23,14.45-2.47,17.24S39.84,240.34,43.54,244s9.85,8.63,16,7.39,18.47-9.85,23.4-16,13.55-17.24,18.47-19.7c4.41-2.21,21.81-19.38,28.33-18.48s4.93,0,3.7,6.16,0,12.32,0,18.47c0,7.76,0,12.32-2.47,18.48-4.5,11.26-6.15,25.86,3.7,25.86s7.51,15.45,21.33,0c3.3-3.69,13.16-1.23,39-1.23,14.78,0,14.78-2.46,23.4-4.92s12.13-5.41,9.85,3.69a34.54,34.54,0,0,0-1.23,7.39,30.15,30.15,0,0,1,1.23,8.62c0,4.93-2.46,24.64-2.46,33.26s1.23,22.17-1.23,25.86-8.62,7.39-4.93,16,7.12,14.41,13.55,16c4.93,1.24,8.62-8.62,9.85-14.78s-2.46-4.92-3.69-13.54,1.23-7.39,1.23-13.55.25-17.15,2.46-25.87,2.18-18.54,4.93-29.56c1.23-4.92,1.23-18.47,3.7-19.7,6.15,1.23,4.92-1.23,17.24-1.23,4.93,0,17.24,3.69,28.33-1.24,6.16-2.46,6.16,1.24,12.31-1.23s9.86-6.16,11.09-8.62-1.23-12.32-6.16-14.78-8.62-6.16-14.78-6.16-15.08.68-22.17,4.93c-2.57,1.54-15.43,1.23-20.94,1.23-2.46,0,1.3-7.38,3.7-20.94,2.24-12.67-1.62-3.92,6.16-24.63,4-10.63.59-5.52,11.08-16,3.7-3.7.69-7.12,11.09-12.32,2.46-1.23,13.54-7.39,18.47-8.62s13.55-4.93,22.17-2.46,22.17,7.39,27.1,6.16S367.46,143,365,135.65s-6.16-1.23-11.09-11.09c-1.23-2.46-2.46-1.23-7.39-4.92s-12.31-1.23-20.93-9.86c-2.47-2.46-10.43-4.94-14.78-3.69-3.41,1-7.53,1.1-11.09,4.93-5,5.33-17.24,9.85-22.17,12.31-7,3.49-9.51,2.47-18.47,2.47-4.93,0-11.19,5.17-13.55,11.08-2.47,6.16-5.83,8.63-6.16,14.78-.48,9.07-2.55,12.57-4.93,19.71-1.23,3.69-3.69,10.93-3.69,16,0,4.92.2,12.57,0,16-.18,3.05-1.89,5.15-2.47,8.62-1.46,8.8.95,17.56,0,18.48-1.17,1.13-11.65,2.47-20.93,3.69-6.61.87-20.94,1.23-20.94-1.23,0-.94,2.46-4.47,3.69-6.16a54.86,54.86,0,0,1,7.39-7.39,38.43,38.43,0,0,0,7.39-6.16c1.26-1.25,4.89-3.65,7.39-6.16a52.7,52.7,0,0,0,7.39-8.62c2.44-3.65,2.47-6.16,2.47-9.85s-3.7-13.55-8.62-12.32c-2.14.54-5.29,9.47-4.93,12.32.3,2.42-4.73,8-9.85,11.08C194.6,202.14,194.12,203.36,192.57,204.62Z" transform="translate(0 0)"/><path d="M189.38,201.44c-2.21,1.82-5,4.4-6.79,5.73a30.9,30.9,0,0,1-3.73,2.37,36.41,36.41,0,0,0-4.61,3.29c-2.6,2-5.75,4-8.44,6.18-2.21,1.83-4,4.05-6.19,5.94a39.59,39.59,0,0,1-7.55,5.06c-.55.29-1.16.52-1.68.84s1-.31.2-.08a4.75,4.75,0,0,0-.49.17c-.12.06-.27.05-.39.11,2.37-1.12,4.25.94,4.89,2.67a3,3,0,0,1-.09-.32c-.17-.7.05,1.29,0,.23a31.4,31.4,0,0,1,.1-3.5,37.55,37.55,0,0,1,.75-4.49c.89-4.14,2.73-8.12,2.91-12.38,0-.78,0-1.56,0-2.34,0-.39,0-.77,0-1.16.06-.79-.31.94.08-.47a24.85,24.85,0,0,1,1.9-4.85c1.22-2.46,2.74-4.94,3.41-7.62,1.14-4.53,1.65-9.23,2.76-13.78a94.91,94.91,0,0,1,3-10c1.21-3.34,3.22-6.42,3.66-10.28.19-1.66.13-3.34.37-5a38,38,0,0,1,1.34-5.26c.59-1.91,1.26-3.81,1.91-5.71.15-.42.3-.85.44-1.28-.36,1.13-.08.2.07-.08a16.22,16.22,0,0,1,1.12-1.71c.46-.63-.67.8.17-.22l.8-1,1.35-1.61a26.59,26.59,0,0,0,2.86-3.82,9.08,9.08,0,0,0,1.18-4.05c0-.46.08-.92.13-1.39,0-.32.07-.64.11-1,0-.14.21-1.56.11-.81.25-1.87.46-3.75.76-5.6l.06-.47c0,.41,0,.36.09-.16-.09.12-.34.77,0,0-.45,1,0,.24.11,0-.21.38-.69.51,0,.08a7.49,7.49,0,0,0,3.31-3.9,7.18,7.18,0,0,0,.4-2.3c0-.32,0-.62-.07-.94,0,.14-.26-2.4-.14-1.06-.28-3.13.75-5.36,2.1-8a34.88,34.88,0,0,1,2.21-3.71l.37-.54c.57-.84-.69.62,0,.06a9.6,9.6,0,0,0,2-2.51,9.17,9.17,0,0,0,1.06-2.73c0-.26.08-.51.12-.77l.16-1.2c.07-.54.07-.49,0,.14-.15-.19.69-1.55-.2,0-.47.82-.43.74-.15.43-1.06,1.13-.15.13.34-.19,1.93-1.3,3.94-2.48,5.95-3.65,1.62-1,3-1.63,4.18-3.19a26.08,26.08,0,0,0,3.69-6.7c2.14-6.28-4-12.35-8.46-15.92a25.75,25.75,0,0,0-8.53-4.85,52.49,52.49,0,0,0-7.74-1.64c-3.21-.48-6.44-.85-9.67-1.13-6.31-.55-13-.72-19.16,1-6.9,2-14,5.91-17.15,12.61A27.05,27.05,0,0,0,137.87,82c-.1,1.15.08-.52.24-.19s-.54,1.25-.71,1.7a16.86,16.86,0,0,0-.93,3.7,19.89,19.89,0,0,0,0,6.35,15.37,15.37,0,0,0,.73,2.76c.18.5,1.09,1.77,1,2.21l-.24-.53a2.87,2.87,0,0,1,0-1.51l.28-.7c-.26.38-.15.25.31-.37l-.29.36A12.35,12.35,0,0,0,137,97.51a7.89,7.89,0,0,0-.46,6.08,9,9,0,0,0,.7,1.53c.1.19.49,1,.1.17s.15.49.24.75a23.47,23.47,0,0,1,.78,3.21c.05.26.09.52.14.78.23,1.35-.08-.93.06.53.1,1,.19,2,.23,3,.08,1.81,0,3.62.24,5.43.2,1.64.56,3.23.88,4.85,0,0,.2,1.17.1.47s0,.56,0,.56c0,.46,0,.91,0,1.37,0,.89-.08,1.77-.14,2.66-.35,5.16-.95,10.29-1.54,15.43-.08.71.17-1.12,0-.08,0,.25-.07.5-.1.74-.07.48-.15,1-.23,1.44-.14.86-.34,1.7-.56,2.54-.74,2.95-1.48,5.89-2.15,8.85a51.76,51.76,0,0,0-1.43,8.17c0,.51-.24.8.09-.44,0-.13.65-1.44.73-1.29s-.51.49-.55.53c.12-.12.87-.53.2-.17-1.14.6-2.24,1.32-3.38,1.93a33,33,0,0,0-3.21,1.85c-.18.13-3.59,2.62-3.16,3.16l0,0q-.35.51.48-.6c-.09,0-.21.23-.28.29s-.24.21-.35.31c-.46.45-.1.43.22-.15-.37.67-2,1.37-2.65,1.77-4.72,2.93-9.71,5.46-14.67,8a45.87,45.87,0,0,0-5.6,2.94A39.28,39.28,0,0,0,96,189.3c-3.93,4.07-7.52,8.45-11.44,12.52-.73.76-1.46,1.5-2.23,2.2-.08.08-.83.88-1,.84.21.06,1-.73.12-.1l-.73.56A64.43,64.43,0,0,1,74,210c-.62.36-1.25.7-1.89,1-.07,0-1.34.59-.45.23-.32.13-.64.25-1,.35a14.16,14.16,0,0,1-1.91.51c-.7.15,1,0-.11,0-.13,0-1.53,0-.86,0s-.42-.1-.46-.11L67,212c.46.22.54.26.24.11l-.16-.08c-.57-.34-.45-.22.39.37.66.67.47.51.79,1.37a2.07,2.07,0,0,1-.1-.33c-.18-.76,0,1.24,0,.39,0-.52,0-1,0-1.55s.08-1.06.14-1.59l.09-.7c-.15,1.15,0-.17.06-.33.25-1.65.54-3.28.83-4.92.73-4.12,1.42-8.24,2-12.39,0,0,.3-2.06.11-.87,0-.28.09-.56.14-.84.13-.72.27-1.44.44-2.15.38-1.68.86-3.33,1.4-5A61.31,61.31,0,0,1,77,174.57a55.55,55.55,0,0,1,4.43-7.52c.15-.22.55-.59-.12.14.2-.22.37-.46.57-.68s.55-.57.81-.87a19.07,19.07,0,0,0,2.24-3.19c2.76-4.79,5.4-11.11,5.16-16.75-.18-4.18-2.67-7.85-5-11.18a85.24,85.24,0,0,0-10.94-12.9c-4.11-3.92-8.83-7.63-14.3-9.4-5.21-1.69-12.7-1.57-17.32,1.71-2.78,2-4.91,5.1-4.73,8.63A23.9,23.9,0,0,0,39.14,129a47.28,47.28,0,0,0,2.25,5.35c.92,1.88,2.11,3.62,3,5.52a24,24,0,0,1,1.36,4.37c.17.79.32,1.6.43,2.41-.1-.73,0,.24,0,.41.05.51.1,1,.13,1.54a25.46,25.46,0,0,1-.58,8.77c-.79,2.79-2.36,5-3.31,8.2-1,3.48-.93,7.13-.93,10.72V186c0,.45,0,.89,0,1.34,0,.14,0,.3,0,.44,0,.92.23-1.12,0-.09-.3,1.38-.59,2.76-.91,4.13A45.76,45.76,0,0,0,39,200.93c-.07,2.37-.27,4.74-.54,7.1,0,.27-.29,2.22-.16,1.28-.09.67-.19,1.33-.29,2-.21,1.28-.43,2.56-.74,3.82a39.8,39.8,0,0,0-1.18,5.13,64.41,64.41,0,0,0,.08,13.81c.49,4.81,1.1,10.23,4.77,13.76,5.47,5.26,13,10,20.88,7.65,6-1.79,11.51-5.68,16.42-9.51A54.55,54.55,0,0,0,85,240c2-2.17,3.72-4.58,5.58-6.86,2.06-2.53,4.15-5,6.36-7.45,1-1,2-2.09,3-3.09.46-.44.94-.88,1.42-1.31l.82-.69c.71-.59-.68.41.13-.08a87.22,87.22,0,0,0,9.38-6.89c2.09-1.71,4.2-3.42,6.33-5.09.13-.11.67-.52,0,0l.9-.69,1.51-1.12c1.07-.77,2.14-1.52,3.25-2.24.91-.58,1.83-1.15,2.78-1.66.43-.23.87-.42,1.3-.65.87-.45-1,.32-.09,0,.24-.08.47-.18.71-.25s.73-.18,1.09-.28c.81-.24-1.19.13-.39.06a1.53,1.53,0,0,1,.37,0h.18c-1-.13-.76-.11.62.08l.83.11,1.05.13c-1.32-.16-.39-.06-.13,0,.66.15,1.16.51-.08-.18a4.66,4.66,0,0,1-1.81-3.06c0-1.66.06-.62-.09,0s-.29,1-.42,1.52a41.41,41.41,0,0,0-1.05,12.65c.23,4.32.49,8.6.43,12.92,0,1.65-.06,3.29-.2,4.93,0,.38-.07.77-.12,1.15-.09.85.2-1-.05.37-.16.9-.32,1.79-.55,2.67-.8,3.17-2.21,6.14-3.13,9.28A48.87,48.87,0,0,0,123,254c-.48,5.61.6,12.41,6,15.36a11.64,11.64,0,0,0,4.6,1.31,12.86,12.86,0,0,0,1.64.07c.94,0-.74-.23-.22,0a8.45,8.45,0,0,0,.9.22c1.13.3-.67-.46.28.13a6.76,6.76,0,0,1,1,.64c0,.06-.91-.81-.19-.12l.34.3q.5.47,1,1c2.95,3.1,6.17,5.7,10.74,4.36,3-.87,5.54-3.11,7.7-5.25.68-.67,1.34-1.37,2-2.07-.12.13.77-.77.78-.82.07-.44-.87.55-.57.43.1,0,.18-.13.27-.18a1.56,1.56,0,0,0,.28-.16c.58-.39.27.35-.51.2.34.06,1.12-.36,1.49-.44a4.17,4.17,0,0,0,.87-.15c-.88.42-1,.11-.42.07l.61-.05c1.78-.13,3.57-.1,5.35-.06,5.87.14,11.74.49,17.61.64,7.4.19,15,.57,22.32-.74,3.93-.7,7.45-2.52,11.23-3.74,2.56-.83,5.14-1.65,7.72-2.42l1.31-.36c1.13-.32-.94-.11.08,0,.31,0,.62.17-.09,0-1.14-.34.68.69-1.13-.35-.78-.46-2-1.88-1.52-2.53a7.27,7.27,0,0,0,0,1.24c0,1,.24-.69,0-.06a7.1,7.1,0,0,0-.18.94c-.38,1.8-.87,3.58-1.17,5.4s-.77,3.93-.31,5.85a26.71,26.71,0,0,1,1,7.51c0,1.93-.21,3.87-.38,5.8-.5,5.8-1.11,11.59-1.57,17.4a152.88,152.88,0,0,0-.36,16.72c.1,3.37.22,6.74.13,10.11,0,1.37-.13,2.72-.24,4.08-.09,1.17.17-.64,0,0-.06.26-.09.54-.14.81s-.21,1.5-.46,1.67c.11-.07.59-.92.11-.32a5.29,5.29,0,0,0-.32.5c-.44.8.53-.57.11-.13-.16.18-.31.38-.47.57-.75.88-1.53,1.74-2.25,2.65a16.69,16.69,0,0,0-3.86,8.78c-.41,4,1.28,7.67,2.91,11.2a41.64,41.64,0,0,0,5.49,9.13c3.72,4.53,10.92,8.83,16.45,4.84a18,18,0,0,0,5.58-7.57,41.78,41.78,0,0,0,2.93-9.18,12.26,12.26,0,0,0-1.06-8.5c-.41-.76-.9-1.48-1.3-2.25-.12-.23-.23-.47-.35-.71-.29-.61.33,1.07,0-.08-.26-.86-.53-1.69-.72-2.57a21.5,21.5,0,0,1-.46-4.41c0-.57,0-1.14.08-1.71-.08,1.41.08-.2.19-.59a28.08,28.08,0,0,0,1.29-6.44c.28-6.76.2-13.91,1.24-20.27.6-3.63,1.61-7.17,2.21-10.8.65-4,1.08-8,1.61-12.08.82-6.27,2.56-12.76,3.21-19.23.13-1.31.25-2.62.39-3.94.07-.65.14-1.3.22-1.95,0-.17.19-1.45,0-.3,0-.24.06-.48.1-.72a27.32,27.32,0,0,1,.62-3.12c.18-.63.5-1.34,0-.28a2.46,2.46,0,0,1,.28-.5c-.1.14-1.36,1.28-1.08,1.11l-3.47.46a19.07,19.07,0,0,0,7.1.19c.72-.13,1.42-.31,2.13-.47.49-.11,1-.21,1.46-.3l.71-.12c1.18-.21-.75.06.28,0a44.28,44.28,0,0,1,9.35-.14c3.25.38,6.48.9,9.76,1.07a42.68,42.68,0,0,0,12.84-1.15c2-.53,3.88-1.48,5.83-2l.86-.21c-1,.23,0,0,.27,0s.63,0,.94.05c-1.28,0-.31,0,.06,0a16.82,16.82,0,0,0,10.83-1.49,27.57,27.57,0,0,0,9.2-6.45c2-2.25,3.44-4.63,3.36-7.74a23.81,23.81,0,0,0-2.4-9.29,15.59,15.59,0,0,0-6.3-7.24c-3.33-1.87-6.53-4-10.09-5.45s-7.33-1.43-11.09-1.21a54.24,54.24,0,0,0-11.88,1.85,40,40,0,0,0-6.06,2.31c-.44.21-2.35.89-2.51,1.34.16-.47,1.21-.36.37-.18l-.69.17-.81.16c-1,.22,1.08-.1,0,0l-1.77.17c-1.62.11-3.24.17-4.87.21-3.06.06-6.13,0-9.2,0-.2,0-1.4-.16-1.52,0,.43-.53,2.4.88,2.66,1.14a15.38,15.38,0,0,1,.93,1.56c-.08-.3.15,1.41.12.35,0-.62.38-.31-.07.45a3.86,3.86,0,0,0,.17-.91c1.38-6.5,3.44-12.79,4.49-19.37a74.37,74.37,0,0,0,.86-8.68c0-.17-.28,1.46,0,.37l.15-.69c.18-.76.41-1.5.64-2.24.86-2.7,1.86-5.36,2.84-8,1.12-3,2.23-6,3.27-9,.11-.32.23-.64.34-1,.41-1.21-.5.8,0,0,.12-.19.24-.41.34-.61.52-1-.82.83,0,0,3.72-3.8,8.36-7,10.43-12.07.17-.41.34-.83.5-1.24.43-1.1-.48.87.1-.21.24-.45.52-.88.77-1.33.43-.78-.54.46-.08.1.28-.22.51-.58.78-.83s.54-.5.82-.74c-.73.63.39-.28.45-.32.71-.49,1.45-.93,2.2-1.35,1.07-.61,2.19-1.15,3.28-1.73,2.52-1.32,5-2.65,7.59-3.9,1.37-.68,2.74-1.33,4.14-1.95.12-.06,1.34-.57.35-.16l.68-.28c.72-.28,1.44-.55,2.17-.78,6.75-2.06,13.69-4.58,20.57-2.68s13.42,4.4,20.34,5.76c3,.6,6.12,1.08,9.15.39a18.68,18.68,0,0,0,8.69-4.61,12.26,12.26,0,0,0,3.7-10.16c-.41-3.56-1.87-7.43-5-9.43a14.31,14.31,0,0,0-3-1.31l-.53-.17c-.77-.24-.23.18.19.11-.35.06-1.12-.62-1.41-.81,1,.66.11,0-.08-.15a10.56,10.56,0,0,1-.78-.87c.55.71-.37-.62-.37-.6-.19-.31-.37-.62-.55-.94a10.29,10.29,0,0,0-3.27-4.06,19.82,19.82,0,0,0-2.37-1.13,41,41,0,0,1-4.45-2.79c-2.42-1.53-5.25-2.13-8-2.76a39.67,39.67,0,0,1-4.14-1.15c-.4-.15-.8-.29-1.19-.46.64.28-.06,0-.15-.09a33.33,33.33,0,0,1-3-1.7c-1.32-.9-2.43-2.12-3.73-3.19a19,19,0,0,0-5.29-2.91,24.14,24.14,0,0,0-10.38-1.82A33.84,33.84,0,0,0,302,104a17.23,17.23,0,0,0-5.05,3.43c-.58.57-1.12,1.16-1.74,1.69,0,0-1,.77-.47.39.34-.26-.75.54-.88.63a65.17,65.17,0,0,1-9.16,5c-2.77,1.3-5.6,2.48-8.37,3.78-1.36.65-2.52,1.23-3.32,1.51-.6.22-1.22.41-1.84.57-.34.09-.69.16-1.05.23l-.69.11c.63-.08.68-.09.17,0-3.32.17-6.61,0-9.93,0a16.82,16.82,0,0,0-10.22,3.64,25.24,25.24,0,0,0-8.07,10.3c-1.49,3.46-3.73,6.53-5.14,10a19.82,19.82,0,0,0-1.32,5.84c-.2,2.19-.29,4-.6,5.72a58.66,58.66,0,0,1-2.8,9.34c-2.45,6.73-5.18,14-5.26,21.21,0,3.5.07,7,.08,10.5,0,1.52,0,3,0,4.57a14,14,0,0,1-1.14,4.34c-2.77,7.22-1.87,15.35-1.15,22.88v.19a3.48,3.48,0,0,1,1.11-2.56l.72-.56c-.25.13-.16.1.25-.08.6-.42.29-.1,0,0s-.5.15-.75.22c-1.47.39-3,.65-4.47.9-4,.67-7.87,1.17-11.77,1.69a83.57,83.57,0,0,1-17.6.71l-1-.1c-1.08-.1,1,.23,0,0-.41-.09-.83-.19-1.25-.27-1.06-.2.84.61-.12,0a3.65,3.65,0,0,1,1.8,3.21l-.09.84c-.31.68-.35.79-.12.31.78-1.31,1.56-2.59,2.43-3.84l.67-.93c.64-.94-.75.79-.06.07.46-.48.88-1,1.33-1.5,1-1.09,2.06-2.15,3.13-3.17.51-.48,1-.94,1.55-1.41a2,2,0,0,1,.42-.36c-.61.46-.75.57-.41.33s.67-.45,1-.68c2.93-2,5.29-4.5,8-6.79.29-.25.6-.49.9-.73.06-.05.63-.49.16-.12,1-.76,1.95-1.5,2.9-2.27a49.92,49.92,0,0,0,4.51-4.21c3.06-3.14,6.18-6.68,7.93-10.74,2.68-6.24,1.63-13.53-1.59-19.36-1.56-2.81-4-5.61-7.2-6.44-3.74-1-6.76.93-8.61,4.09a28.79,28.79,0,0,0-3.25,8.66,10.37,10.37,0,0,0-.41,3.91c.15.75.24-1,.1-.4-.08.31-.35.82.12-.14a9.67,9.67,0,0,1-.48.9c-.08.14-1,1.41-.45.73-2.28,3-4.87,4.78-7.91,6.72a60,60,0,0,0-6.08,5c-1.86,1.56-1.61,4.75,0,6.36a4.6,4.6,0,0,0,6.37,0c1-.83,1.86-1.8,2.84-2.65.49-.42-.58.41,0,0l.55-.39c.52-.35,1-.69,1.59-1a38.37,38.37,0,0,0,3.2-2.18c3.57-2.73,7.87-6.5,8.94-11.09a10.25,10.25,0,0,0,.17-2.52c0-.19.16-1.24,0-.51s.14-.6.2-.86c.19-.85.44-1.69.71-2.52.14-.43.3-.86.46-1.28l.21-.54c.2-.51-.32.63.06-.13s.76-1.36,1.11-2.05-.66.53,0,0a2.44,2.44,0,0,0,.23-.22c.08.47-1.43.74-1.7.85-.44.17-.31,0,0,0,.77,0-.29,0-.38-.06.69.14-.81-.51.09,0s-.27-.47.17.13c.26.34.62.63.89,1-.56-.69,0,.06.21.38s.43.74.63,1.11.38.78.57,1.17-.07-.18-.09-.23c.11.29.22.57.32.85a20.54,20.54,0,0,1,.68,2.28c.08.34.14.69.21,1,.16.67,0-1,0,.05s0,2.09-.06,3.14c0,.23,0,.45-.05.68-.09.75.13-.6,0,.14a13.88,13.88,0,0,1-.51,1.78,21.42,21.42,0,0,1-1.71,2.82,31.92,31.92,0,0,1-2.29,2.89,56.45,56.45,0,0,1-5.2,5.29c-2,1.79-3.43,2.65-5.39,4.32-1.46,1.24-2.74,2.7-4.22,3.94l-.48.4c.16-.13.59-.42-.18.13-.5.37-1,.73-1.52,1.08a32.34,32.34,0,0,0-2.59,1.94,46.23,46.23,0,0,0-7.56,8.13c-2.34,3.27-5.95,8-2.27,11.64,2.44,2.44,6.88,2.45,10.08,2.57a87.57,87.57,0,0,0,11.45-.36c5-.47,10-1.24,15-2,3.4-.51,8-.68,10.88-2.86,3.34-2.56,1.79-7.82,1.54-11.37a49.53,49.53,0,0,1,0-8.26,29.12,29.12,0,0,1,1.95-6.83c1.45-4.18.93-9.08.89-13.43,0-2.27-.09-4.55-.06-6.82,0-.52,0-1,.07-1.54,0-.23,0-.46.06-.69-.07.67,0-.12,0-.22.2-1.23.46-2.45.75-3.66,2.1-8.6,6.19-16.58,7.33-25.41.34-2.64.18-4.61.94-6.93.07-.22.15-.43.23-.64.26-.71-.26.51.06-.16.23-.47.46-.93.71-1.39.55-1,1.15-2,1.73-3s1.17-2.13,1.68-3.24c.36-.8.65-1.63,1-2.41-.05.1-.2.43,0,0s.37-.72.57-1.07a17,17,0,0,1,4-4.62,24.28,24.28,0,0,1,2.45-1.5c.46-.24,0,0-.09,0a8.29,8.29,0,0,1,.79-.28c.32-.11,1.71-.35.74-.26a62.19,62.19,0,0,1,7,.08,28.18,28.18,0,0,0,11.82-2c3.6-1.51,7.14-3.23,10.68-4.85a64.42,64.42,0,0,0,11.45-6.31,32.93,32.93,0,0,0,2.61-2.07c.7-.63,1.73-1.77,2.17-2.09a10,10,0,0,1,1.25-.77c.27-.15.56-.3.84-.42-.2.09-.61.2.2,0,1-.29,1.93-.57,2.92-.8s1.85-.43,2.77-.66l.7-.16c-.09,0-.77,0-.26,0s1.23,0,1.85,0c.43,0,.86,0,1.29.11-.75-.1.59.13.8.17a26.19,26.19,0,0,1,3.25.93l.8.3c-.18-.07-.69-.34.06,0,.34.17.69.33,1,.52.12.07,1.21.78.68.39s0,0,.11.12c.33.33.67.65,1,1a29.43,29.43,0,0,0,6.53,4.66c3.68,1.85,7.52,2.52,11.43,3.62l1.09.34c1.05.34-.41-.29.26.09a27.75,27.75,0,0,1,2.36,1.51,30.17,30.17,0,0,0,4.67,2.54c.22.1.43.23.65.33.78.33-.63-.61-.22-.16-.51-.55-.43-.66-.12-.05s.67,1.29,1.05,1.9a16.08,16.08,0,0,0,4.83,5.25,16.68,16.68,0,0,0,4.07,1.75c1.07.35-.2-.07-.18-.11s.57.35.65.37-.83-.62-.12,0c-.13-.11-.52-.91-.21-.26a3.33,3.33,0,0,0,.32.54c.1.13.36.77,0-.09.08.19.15.39.22.59.17.54.33,1.08.45,1.63-.15-.72,0,.54,0,.77a4.16,4.16,0,0,1,0,.61c.1-1,0-.08-.09.13-.35,1,.24-.15-.19.46-.13.19-.26.42-.38.61,0,0,.49-.57.16-.19s-.6.61-.89.91c-.13.14-.67.52.06,0-.2.15-.41.29-.61.42a12.53,12.53,0,0,1-1.12.65c-.3.16-1.27.57-.43.24-.81.32-1.64.52-2.46.78s.85,0,.07,0c-.34,0-.69,0-1,0s-.75,0-1.13-.07l-.52-.05c-.54,0,.8.15-.08,0a110.51,110.51,0,0,1-12.76-3.27c-4.74-1.44-9.47-3.26-14.44-3.68-5.35-.45-10.72.86-15.81,2.38a78.52,78.52,0,0,0-10.71,3.84c-3.43,1.57-6.78,3.33-10.11,5.09s-6.94,3.44-9.56,6.28a14.8,14.8,0,0,0-2.65,3.95c-.33.73-.63,1.48-.92,2.23l-.17.42c-.21.57,0-.42.2-.46a4.37,4.37,0,0,0-.4.81c-.12.21-.27.4-.37.61-.23.45.67-.67-.11.11s-1.84,1.84-2.78,2.75c-1.22,1.18-2.47,2.34-3.69,3.53a14.93,14.93,0,0,0-3.74,5.59c-1.27,3.37-2.41,6.79-3.66,10.16-1.13,3-2.3,6.07-3.19,9.17a21.5,21.5,0,0,0-.82,4.84c0,.61,0,1.22-.08,1.82,0,.41-.05.82-.09,1.22,0,.25,0,.49-.08.73s-.18,1.31-.06.5l-.08.52-.18,1.12c-.22,1.29-.46,2.58-.72,3.86-.5,2.48-1.08,5-1.72,7.39-.85,3.29-2.09,6.65-2.34,10.06a5.9,5.9,0,0,0,1.51,4.65c1.46,1.43,3.19,1.56,5.12,1.57,3.89,0,7.78.06,11.67-.09,3.5-.14,7.27-.21,10.41-1.9a36.56,36.56,0,0,1,13.17-3.88,61.23,61.23,0,0,1,6.5-.3,11.21,11.21,0,0,1,5.38,1.44c2,1,3.87,2.33,5.85,3.43.47.26,1,.49,1.42.75s1,.83.3.13c.28.28.58.54.86.83l.35.4c-.41-.47-.19-.27.05.11a24.62,24.62,0,0,1,1.29,2.3c.23.45-.05-.15-.07-.21l.27.71c.17.47.33.94.47,1.42a24.33,24.33,0,0,1,.55,2.39c.17.83,0-.93,0,.18,0,.36,0,.72,0,1.08,0,.95.19-.76,0-.21s.69-1.13.09-.25l-.52.83c-.06.09-.39.5,0,0s-.27.3-.29.32a14.67,14.67,0,0,1-4.29,3.45,24.49,24.49,0,0,1-3.1,1.59,13.48,13.48,0,0,1-1.48.51l-.65.16c-.67.18.93,0-.14,0a10.7,10.7,0,0,0-1.13,0c-.45.07.42.06.48.07l-.56-.1a25.43,25.43,0,0,0-3-.46,15.66,15.66,0,0,0-6.89,1.48,28.61,28.61,0,0,1-6.94,1.75,62.85,62.85,0,0,1-14-.61,47.82,47.82,0,0,0-11.53-.23,46.22,46.22,0,0,0-5.1.8l-1.42.32-.64.13c-1,.23.86,0,.29,0s-.92.06-1.39,0a5.39,5.39,0,0,0-.8-.06c-.55.05,1,.19.42.06l-.56-.1c-2.79-.45-5,.43-6.35,3-1.7,3.28-1.87,7.34-2.24,10.92-.19,1.88-.36,3.76-.57,5.63,0,.41-.1.82-.14,1.24.1-.9,0-.19,0,.25-.12.8-.3,1.58-.49,2.37a160.86,160.86,0,0,0-2.85,17.6c-.57,4.65-1.65,9.52-2.62,14.43a110.54,110.54,0,0,0-1.77,16.13c-.09,2.18-.14,4.35-.15,6.53,0,.9,0,1.8-.06,2.7,0,1.1.17-.46,0,.25-.09.34-.15.69-.24,1-.29,1.11-.72,2.17-.93,3.3a20.88,20.88,0,0,0-.15,6.41,27.71,27.71,0,0,0,1.81,7.79c.59,1.4,1.37,2.63,2.08,4,.06.1.11.21.16.31.31.53.11,0,0,0-.29-.06-.11-.55-.06-.11a2.31,2.31,0,0,0,.12.47c.22.57,0-1,0,0,0,.22-.11,1.41,0,.91s-.15.67-.21.91c-.1.45-.2.9-.32,1.34-.26,1-.56,2-.89,3-.16.48-.33.95-.51,1.42l-.24.61c.07-.18.33-.7-.05.11a25.07,25.07,0,0,1-1.42,2.72c-.24.38-.48.75-.75,1.11.51-.68-.08,0-.32.28s-.24.22-.35.34c.25-.27.69-.24.17-.15a1.79,1.79,0,0,0-.38.22c-.26.27.89-.24.16-.1,0,0,1-.11.52-.07-.25,0-.73-.14-.1,0s-.64-.25-.81-.3c-.8-.22.39.26-.33-.13-.5-.27-1-.54-1.47-.84-.16-.1-.31-.21-.46-.32.15.11.62.57,0,0-.28-.26-.57-.51-.85-.79s-.71-.77-1.07-1.17c0,0-.45-.55-.16-.18s-.42-.59-.4-.56a42.29,42.29,0,0,1-3.35-5.94c-.49-1-1-2.09-1.43-3.16-.09-.24-.36-1-.47-1.42-.07-.23-.12-.46-.17-.69s-.14-1.16-.08-.34c0-.41,0-.82,0-1.22-.05-.8,0-.18-.05.06q.06-.36.15-.72c.08-.35.2-.68.31-1-.31,1,.11-.19.27-.48s.46-.77.72-1.14.59-.72.09-.14l1.65-1.94a17,17,0,0,0,2.74-3.74,19,19,0,0,0,1.46-6.22c.88-8.12-.32-16.32,0-24.46.36-7.91,1.29-15.79,2-23.67a49.23,49.23,0,0,0,.24-9.4,30.4,30.4,0,0,0-1.09-6.2,1.93,1.93,0,0,0-.12-.41c0,.06,0,1.27.15,1a4.74,4.74,0,0,0,.1-1.31c.09-1-.13.64,0-.27.09-.5.17-1,.27-1.51.25-1.3.58-2.58.88-3.88a16,16,0,0,0,.49-5.72c-.62-4.5-4.81-5.82-8.74-4.9a101.23,101.23,0,0,0-9.86,3.07c-2.44.84-4.79,2-7.27,2.71-.63.19-1.28.36-1.93.5q-.54.12-1.08.21c-.35.06-1.53.23-.55.11a66.48,66.48,0,0,1-6.76.42c-5.47.1-10.95,0-16.42-.23-6.43-.21-13-1-19.47-.43a15.13,15.13,0,0,0-6.44,1.67,14.71,14.71,0,0,0-3.23,2.92c-.83.87-1.68,1.72-2.58,2.52-.31.28-.64.55-1,.81.72-.56-.34.21-.55.34s-.73.36-1,.58c.38-.28.77-.36.14-.09-.82.34.18,0,.24,0-.26-.07-1.73-.2.16.09a2.55,2.55,0,0,1-.52-.15c1.78.65.57.15.35.1-.82-.18.16-.35.23.21,0-.1-.49-.43-.59-.51-1.8-1.71-3.27-3.63-5.46-4.91a12.82,12.82,0,0,0-5.28-1.63l-1-.06c-.2,0-.49,0-.7,0,.07,0,.82.22.38.05a9,9,0,0,0-1.05-.27c.19,0,.83.52.28.11a3.43,3.43,0,0,0-.49-.28c-.59-.26.57.58-.06-.09s.25.59-.09-.07a5.51,5.51,0,0,0-.5-.89c-.33-.44.18.79.1.23a4.22,4.22,0,0,0-.2-.6c-.1-.37-.2-.74-.27-1.11s-.08-.45-.12-.68c0,.06,0,.84.06.32,0-.93-.12-1.87-.09-2.81s.11-1.9.23-2.84c-.11.86.08-.45.12-.7.1-.58.21-1.15.34-1.72a52.71,52.71,0,0,1,1.76-6.28c.75-2.16,1.67-4.24,2.25-6.46a40.58,40.58,0,0,0,1.13-7.27,122.19,122.19,0,0,0-.21-16.46,42.35,42.35,0,0,1,.07-8.35c.24-1.67.79-3.24,1.16-4.88a5.82,5.82,0,0,0-1.23-5.68c-1.41-1.42-3.3-1.63-5.17-1.88l-1.16-.15-.59-.07-.88-.12a10.27,10.27,0,0,0-2.41.18,16.64,16.64,0,0,0-4.17,1.45c-6.4,3-11.94,8-17.35,12.42-1.21,1-2.41,2-3.63,2.94-.26.21-.52.4-.77.61.55-.44.53-.4,0,0s-.87.64-1.31.93a44.53,44.53,0,0,0-7.45,5.81,128.44,128.44,0,0,0-8.76,10,84.18,84.18,0,0,1-7.56,8.77,56.44,56.44,0,0,1-10,7.53c-1.66,1-3.36,1.91-5.11,2.77-.75.37.57-.19-.42.18-.36.13-.71.27-1.08.38a5.37,5.37,0,0,1-2,.4,6.05,6.05,0,0,1-2.72-.44,14.24,14.24,0,0,1-2.86-1.37,25.61,25.61,0,0,1-5-4,7.93,7.93,0,0,1-.7-.72c.34-.36.56,1.17.21.17-.27-.8-.36-.19,0,.14a3,3,0,0,1-.35-1,30.17,30.17,0,0,1-1-4.41c-.18-1.16,0,.48-.05-.37,0-.42-.1-.84-.14-1.26-.09-.91-.16-1.83-.21-2.75-.1-1.73-.15-3.47-.14-5.21,0-1.49,0-3,.17-4.45,0-.29.06-.58.08-.87.09-1-.18.89,0,.22a12,12,0,0,1,.26-1.19c2-6.41,2.34-13.18,2.78-19.85,0-.51-.05.25-.05.29,0-.26.08-.52.12-.78.08-.47.18-.95.27-1.43.22-1.06.47-2.12.72-3.19.45-1.9.92-3.79,1.18-5.73.5-3.74.16-7.68.16-11.44,0-2.39-.08-4.79.1-7.17,0,0,.1-.81,0-.4s.09-.46.11-.55q.15-.72.36-1.44c.13-.43.29-.85.44-1.27s-.08.18-.11.23c.12-.27.25-.53.37-.8a32,32,0,0,0,3.61-14.63,38.87,38.87,0,0,0-2.29-13.86c-1.1-2.74-2.68-5.18-4-7.82a24.1,24.1,0,0,1-1.91-5.1c-.17-.63-.29-1.27-.42-1.92-.19-.93,0,.86,0,.27,0-.2,0-.41,0-.61s.07-.52,0-.62c.07.12-.33,1.4-.1.82a3.18,3.18,0,0,0,.14-.53c.19-.9-.64,1,0,.05,0-.05.39-.57.38-.59.12.24-.87.91-.07.16a5.46,5.46,0,0,0,.48-.44c.12.34-.91.57-.35.28.15-.07.29-.19.43-.27s.47-.25.71-.38c.63-.36-.15.08-.27.11.2-.06.39-.15.59-.2.45-.13.89-.25,1.34-.35s1.12-.15.34-.07a24.88,24.88,0,0,1,3.76-.08c.55,0,1.11.12,1.66.12-1.25,0-.13,0,.28.08.72.16,1.4.42,2.1.64s0,0-.16-.08l.61.28c.31.14.62.3.92.46.85.45,1.67.94,2.47,1.47s1.34.92,2,1.41-.53-.43,0,0l.46.37c.41.33.81.67,1.21,1a73.36,73.36,0,0,1,8.08,8.36c.57.69,1.13,1.39,1.68,2.09-.6-.76.16.22.3.4.29.38.57.76.84,1.15.91,1.25,1.77,2.52,2.58,3.83.62,1,1.18,2,1.71,3.07s-.38-1.06,0,.17c.07.18.09.39.15.57,0-.13,0-1.11,0-.34,0,.21,0,.42,0,.62,0,.39,0,.78-.06,1.17-.07,1.13.13-.41-.06.42s-.41,1.93-.69,2.88-.58,1.85-.92,2.75c-.17.46-.34.9-.53,1.35.33-.79-.24.52-.35.76-.69,1.47-1.59,2.78-2.36,4.19-.12.22.69-.73.06-.1-.2.2-.39.4-.58.62a30.92,30.92,0,0,0-2,2.45,56.33,56.33,0,0,0-5.91,10.73,69.88,69.88,0,0,0-4.65,13.71C62,192,61.53,197.22,60.63,202.32,60,206,59,210,59.19,213.8a7.45,7.45,0,0,0,2,5c1.66,1.69,4.49,2.34,6.77,2.39,4.44.1,8.79-2.11,12.41-4.48a65.72,65.72,0,0,0,8.36-6.29c5.45-5,9.84-11,15.09-16.16.55-.54,1.11-1.08,1.69-1.59l.67-.58c.9-.76-.36.19.14-.11,1.19-.71,2.41-1.33,3.65-1.95,3.46-1.74,6.91-3.51,10.32-5.35a76.22,76.22,0,0,0,8.65-5.16,13,13,0,0,0,3.4-3.2c.17-.25.46-.43,0-.09-.64.49.19-.07.35-.24-.73.8-.15.14.21-.09s.8-.48,1.2-.71c3.2-1.78,7.5-3.39,8.63-7.26a10.17,10.17,0,0,0,.26-2.45c0-.58-.18,1-.05.34,0-.15.05-.31.08-.47.08-.46.16-.93.25-1.39.39-2,.86-4.07,1.35-6.09.76-3.18,1.73-6.35,2.24-9.59.58-3.61,1-7.26,1.35-10.91.33-3.28.65-6.57.82-9.87a24.61,24.61,0,0,0-.25-4.92c-.12-.81-.3-1.61-.47-2.42-.1-.42-.18-.84-.27-1.27,0-.2-.07-.39-.1-.59.13.83,0-.24,0-.39-.35-4.63-.18-9.22-1.5-13.73a23.12,23.12,0,0,0-1.37-3.52,2.55,2.55,0,0,0-.25-.46c-.18-.26.27.65.32.82.13.46,0,0,0-.11l-.08.6c.12-.36.11-.35,0,0,0,.07-.21.52,0,.09.32-.62-.22.27-.27.33.34-.46.74-.87,1-1.35a6.15,6.15,0,0,0,1.06-3.34,8.62,8.62,0,0,0-.91-3.34,8.51,8.51,0,0,1-.72-3.39,15.72,15.72,0,0,1,.06-1.68c-.06.73.1-.48.15-.7a21.79,21.79,0,0,1,.68-2.26c.24-.73-.48,1-.18.42.18-.35.52-1.24.51-1.18.19-.69.27-1.43.41-2.13.18-.88.39-1.76.64-2.63q.19-.72.45-1.44l.22-.64c.05-.11.44-1,.17-.41a12.11,12.11,0,0,1,3.51-4.66,25,25,0,0,1,2.55-1.64c.48-.28,1-.53,1.48-.78l.64-.3c.1,0,1-.42.42-.19a31.07,31.07,0,0,1,5.6-1.66,14.53,14.53,0,0,1,2.27-.29c1.36-.12,2.72-.17,4.09-.18,2.12,0,4.25,0,6.37.2,1.64.11,3.27.28,4.91.44l1.67.18,1,.13c.47.06,1.18.17.3,0,1.74.27,3.48.53,5.2.89a41.5,41.5,0,0,1,4.88,1.35c.77.26-.7-.41.17.08.35.2.7.39,1,.6a25.73,25.73,0,0,1,2.48,1.74,32,32,0,0,1,4.71,4.74c-.44-.56.12.18.25.37.27.39.53.79.76,1.2s.26.55.41.82c-.5-.91-.26-.65-.18-.34s0,.45,0-.17c0-.82,0-.26,0-.07,0,.46.06-.5.06-.5s-.43,1.29-.21.74-.33.64-.42.82c-.21.39-.43.77-.66,1.15-.57,1-1.18,1.88-1.84,2.77l1.61-1.61c-1.91,1.09-3.8,2.2-5.67,3.35-2.79,1.7-6.12,3.39-6.85,6.87-.14.62-.16,1.26-.26,1.88.14-.84,0,0-.11.35-.2.9-.14.32-.05.18l-.28.41c-.09.11-.3.31-.43.46a27.2,27.2,0,0,0-3.16,4.65c-2.18,3.85-4.38,8.52-4,13.07.05.72.18,1.45.27,2.17.11.9.06-.68,0,.13s.32-.83,0,0a3.39,3.39,0,0,1,.61-1.14c-.36.44.16-.16.33-.24a8.72,8.72,0,0,0-4.09,4.48,8,8,0,0,0-.51,1.59c-.09.47-.13.95-.2,1.43-.12.9,0,.39,0,.19l-.48,3.45a47.44,47.44,0,0,0-.72,5.94c0,.8.17-.74.07-.4,0,0,.5-.83,0,0-.17.27-.34.55-.52.81s-.21.29-.31.43c-.4.55.68-.81-.12.14-1.31,1.56-2.63,3.13-3.86,4.75-2.72,3.58-3.91,8.26-5.15,12.52a36.65,36.65,0,0,0-1.45,7.9c-.07,1.06-.07,2.13-.19,3.19.08-.71-.1.32-.15.54s-.28.81,0,.14c-.13.31-.3.6-.44.91a81.32,81.32,0,0,0-4.94,13.52c-1,3.72-1.84,7.5-2.54,11.29-.38,2-.57,4.14-1.15,6.11a11.91,11.91,0,0,1-.46,1.26c.27-.67-.12.23-.22.45-.42.88-.88,1.75-1.32,2.62a43.6,43.6,0,0,0-3,7c-.72,2.34-.56,4.71-.66,7.12a8.41,8.41,0,0,1-.6,2.79c-.45,1.37-.88,2.75-1.25,4.15a47.1,47.1,0,0,0-1.94,12.74,9.41,9.41,0,0,0,1,4.53,5.06,5.06,0,0,0,5.89,2.18c3.39-1,6.72-3.16,9.55-5.18,3.51-2.5,6.28-5.6,9.47-8.45l.75-.64.41-.33c.5-.4-.59.43,0,0l2.83-2c1.94-1.32,4.2-3.15,5.67-4.25s3.22-1.92,4.78-3a65.14,65.14,0,0,0,5.59-4.37c1.44-1.22,2.85-2.49,4.32-3.7,1.88-1.54,1.6-4.76,0-6.36C193.89,199.58,191.27,199.89,189.38,201.44Z" transform="translate(0 0)"/></g><rect id="_切片_" data-name="&lt;切片&gt;" class="cls-3" width="400" height="400"/></g></svg>